<?xml version="1.0" encoding="iso-8859-1"?>
<svg xmlns="http://www.w3.org/2000/svg" xmlns:xlink="http://www.w3.org/1999/xlink" version="1.1" viewBox="0 0 18.631 18.631" enable-background="new 0 0 18.631 18.631" width="512px" height="512px">
  <g>
    <g>
      <path fill="#FFFFFF" fill-rule="evenodd" d="m17.783,5.081h-15.244c-0.465,0-0.844,0.379-0.844,0.848v1.691h-0.848c-0.468,0-0.847,0.379-0.847,0.848v1.695c0,0.469 0.379,0.844 0.847,0.844h0.848v1.695c0,0.469 0.379,0.848 0.844,0.848h15.243c0.469,0 0.848-0.379 0.848-0.848v-6.774c0.001-0.468-0.378-0.847-0.847-0.847zm-.848,6.774h-13.548v-5.079h13.548v5.079zm-.847-1.692v-1.668c0-0.004-0.003-0.007-0.003-0.011 0-0.007 0.003-0.01 0.003-0.017 0-0.469-0.379-0.848-0.844-0.848-1.237,0-3.387,0-3.387,0l-1.695,3.387c0,0 3.442,0 5.082,0 0.464,0.001 0.844-0.375 0.844-0.843z"/>
    </g>
  </g>
</svg>
