<?xml version="1.0" encoding="utf-8"?>
<!-- Generator: Adobe Illustrator 19.1.0, SVG Export Plug-In . SVG Version: 6.00 Build 0)  -->
<svg version="1.1" id="Layer_1" xmlns="http://www.w3.org/2000/svg" xmlns:xlink="http://www.w3.org/1999/xlink" x="0px" y="0px"
	 viewBox="0 0 26 41.8" style="enable-background:new 0 0 26 41.8;" xml:space="preserve">
<style type="text/css">
	.st0{fill:#0A0A0A;}
</style>
<path class="st0" d="M14.8,25.1v-13c2.6-0.8,4.5-3.1,4.5-5.9c0-3.4-2.8-6.2-6.2-6.2c0,0-0.1,0-0.1,0c0,0-0.1,0-0.1,0
	C9.4,0,6.7,2.8,6.7,6.2c0,2.8,1.9,5.2,4.5,5.9v13C4.8,25.8,0,29.2,0,33.4c0,4.6,5.8,8.3,13,8.4c7.2-0.1,13-3.8,13-8.4
	C26,29.2,21.2,25.8,14.8,25.1z"/>
</svg>
