<?xml version="1.0" standalone="no"?>
<!DOCTYPE svg PUBLIC "-//W3C//DTD SVG 20010904//EN"
 "http://www.w3.org/TR/2001/REC-SVG-20010904/DTD/svg10.dtd">
<svg version="1.0" xmlns="http://www.w3.org/2000/svg"
 width="90.000000pt" height="90.000000pt" viewBox="0 0 90.000000 90.000000"
 preserveAspectRatio="xMidYMid meet">
<metadata>
Created by potrace 1.11, written by Peter Selinger 2001-2013
</metadata>
<g transform="translate(0.000000,90.000000) scale(0.100000,-0.100000)"
fill="#000000" stroke="none">
<path d="M402 815 c-23 -29 -19 -71 9 -88 15 -9 19 -24 19 -69 l0 -58 -32 0
c-109 -1 -265 -61 -332 -127 -92 -93 -86 -213 15 -295 56 -45 87 -61 177 -88
66 -20 89 -22 215 -18 122 4 152 9 210 31 218 84 280 249 142 376 -77 71 -201
117 -322 120 l-33 1 0 60 c0 33 4 60 10 60 14 0 38 52 32 70 -17 53 -77 67
-110 25z"/>
</g>
</svg>
